<svg xmlns="http://www.w3.org/2000/svg" width="256" height="256" viewBox="0 0 24 24"><path fill="#34A853" d="M12 22h5.5q.425 0 .713-.288T18.5 21V12H12z"/><path fill="#4285F4" d="M12 22V12H5.5q-.425 0-.712-.288T4.5 11V6.5q0-.425.288-.712T5.5 5.5H12v6.5h6.5V6.5q0-.425.288-.712T19.5 5.5h-2.1l.4-1.6q.15-.6-.2-1.15T16.5 2q-.6 0-1.05.45L12 6.35L8.55 2.45q-.45-.45-1.05-.45q-.6 0-1.05.45t-.4 1.1l.4 1.6H4.25q-1.125 0-1.937.813T1.5 8v10.5q0 1.45.975 2.475T5 22z"/><path fill="#FBBC04" d="M5.5 3.5h2.1L7.2 5.1q-.15.6.2 1.15T8.5 7q.6 0 1.05-.45L12 2.65l3.45 3.9q.45.45 1.05.45q.6 0 1.05-.45t.4-1.1L17.5 3.5h2.1q1.125 0 1.938-.812T22.5 1V.5q0-1-.9-1t-.9 1zM12 11h6.5V5.5H12z"/><path fill="#EA4335" d="M12 11V5.5h-6.5q-.425 0-.712.288T4.5 6.5V11z"/><path fill="#1A73E8" d="M3.5 12V6.5q0-.425.288-.712T4.5 5.5H5V3.5H4.25q-1.125 0-1.937.813T1.5 8v4z"/><g fill="#188038"><path d="M15 17.5a2.5 2.5 0 0 0 2.5-2.5h-5a2.5 2.5 0 0 0 2.5 2.5"/><path d="M15 17.5a2.5 2.5 0 0 0 2.5-2.5h-5a2.5 2.5 0 0 0 2.5 2.5z"/></g><path fill="#4285F4" d="M12 2v6.5h6.5q.425 0 .713.288T19.5 9.5V8h2v1.5q0 1.45-.975 2.475T18 12.5H12z"/></svg>